# Blender v2.79 (sub 0) OBJ File: 'horse_head.obj'
# www.blender.org
mtllib horse_head.mtl
o field_110706_e
v 0.153125 0.362139 -0.689744
v 0.028125 0.362139 -0.689744
v 0.028125 0.524519 -0.783494
v 0.153125 0.524519 -0.783494
v 0.028125 0.393389 -0.635617
v 0.153125 0.393389 -0.635617
v 0.153125 0.555769 -0.729367
v 0.028125 0.555769 -0.729367
vt 0.007813 0.968750
vt 0.023438 0.968750
vt 0.023438 0.992188
vt 0.007813 0.992188
vt 0.031250 0.968750
vt 0.046875 0.968750
vt 0.046875 0.992188
vt 0.031250 0.992188
vt 0.023438 1.000000
vt 0.007813 1.000000
vt 0.023438 0.992188
vt 0.039063 0.992188
vt 0.039063 1.000000
vt 0.023438 1.000000
vt 0.000000 0.968750
vt 0.000000 0.992188
vn 0.0000 -0.5000 -0.8660
vn 0.0000 0.5000 0.8660
vn 0.0000 0.8660 -0.5000
vn 0.0000 -0.8660 0.5000
vn 1.0000 0.0000 0.0000
vn -1.0000 0.0000 0.0000
usemtl Head
s off
f 1/1/1 2/2/1 3/3/1 4/4/1
f 5/5/2 6/6/2 7/7/2 8/8/2
f 4/4/3 3/3/3 8/9/3 7/10/3
f 6/11/4 5/12/4 2/13/4 1/14/4
f 6/15/5 1/1/5 4/4/5 7/16/5
f 2/2/6 5/5/6 8/8/6 3/3/6
o field_110714_j
v 0.062500 -0.337320 -0.213742
v -0.062500 -0.337320 -0.213742
v -0.062500 0.528706 -0.713742
v 0.062500 0.528706 -0.713742
v -0.062500 -0.212320 0.002764
v 0.062500 -0.212320 0.002764
v 0.062500 0.653706 -0.497236
v -0.062500 0.653706 -0.497236
vt 0.484375 0.843750
vt 0.500000 0.843750
vt 0.500000 0.968750
vt 0.484375 0.968750
vt 0.531250 0.843750
vt 0.546875 0.843750
vt 0.546875 0.968750
vt 0.531250 0.968750
vt 0.500000 1.000000
vt 0.484375 1.000000
vt 0.500000 0.968750
vt 0.515625 0.968750
vt 0.515625 1.000000
vt 0.500000 1.000000
vt 0.453125 0.843750
vt 0.453125 0.968750
vn 0.0000 -0.5000 -0.8660
vn 0.0000 0.5000 0.8660
vn 0.0000 0.8660 -0.5000
vn 0.0000 -0.8660 0.5000
vn 1.0000 0.0000 0.0000
vn -1.0000 0.0000 0.0000
usemtl Head
s off
f 9/17/7 10/18/7 11/19/7 12/20/7
f 13/21/8 14/22/8 15/23/8 16/24/8
f 12/20/9 11/19/9 16/25/9 15/26/9
f 14/27/10 13/28/10 10/29/10 9/30/10
f 14/31/11 9/17/11 12/20/11 15/32/11
f 10/18/12 13/21/12 16/24/12 11/19/12
o field_110705_d
v -0.028125 0.362139 -0.689744
v -0.153125 0.362139 -0.689744
v -0.153125 0.524519 -0.783494
v -0.028125 0.524519 -0.783494
v -0.153125 0.393389 -0.635617
v -0.028125 0.393389 -0.635617
v -0.028125 0.555769 -0.729367
v -0.153125 0.555769 -0.729367
vt 0.007813 0.968750
vt 0.023438 0.968750
vt 0.023438 0.992188
vt 0.007813 0.992188
vt 0.031250 0.968750
vt 0.046875 0.968750
vt 0.046875 0.992188
vt 0.031250 0.992188
vt 0.023438 1.000000
vt 0.007813 1.000000
vt 0.023438 0.992188
vt 0.039063 0.992188
vt 0.039063 1.000000
vt 0.023438 1.000000
vt 0.000000 0.968750
vt 0.000000 0.992188
vn 0.0000 -0.5000 -0.8660
vn 0.0000 0.5000 0.8660
vn 0.0000 0.8660 -0.5000
vn 0.0000 -0.8660 0.5000
vn 1.0000 0.0000 0.0000
vn -1.0000 0.0000 0.0000
usemtl Head
s off
f 17/33/13 18/34/13 19/35/13 20/36/13
f 21/37/14 22/38/14 23/39/14 24/40/14
f 20/36/15 19/35/15 24/41/15 23/42/15
f 22/43/16 21/44/16 18/45/16 17/46/16
f 22/47/17 17/33/17 20/36/17 23/48/17
f 18/34/18 21/37/18 24/40/18 19/35/18
o field_110709_a
v 0.156250 -0.026242 -0.862440
v -0.156250 -0.026242 -0.862440
v -0.156250 0.244391 -1.018690
v 0.156250 0.244391 -1.018690
v -0.156250 0.192508 -0.483554
v 0.156250 0.192508 -0.483554
v 0.156250 0.463141 -0.639804
v -0.156250 0.463141 -0.639804
vt 0.054688 0.906250
vt 0.093750 0.906250
vt 0.093750 0.945313
vt 0.054688 0.945313
vt 0.148438 0.906250
vt 0.187500 0.906250
vt 0.187500 0.945313
vt 0.148438 0.945313
vt 0.093750 1.000000
vt 0.054688 1.000000
vt 0.093750 0.945313
vt 0.132813 0.945313
vt 0.132813 1.000000
vt 0.093750 1.000000
vt 0.000000 0.906250
vt 0.000000 0.945313
vn 0.0000 -0.5000 -0.8660
vn 0.0000 0.5000 0.8660
vn 0.0000 0.8660 -0.5000
vn 0.0000 -0.8660 0.5000
vn 1.0000 -0.0000 0.0000
vn -1.0000 0.0000 0.0000
usemtl Head
s off
f 25/49/19 26/50/19 27/51/19 28/52/19
f 29/53/20 30/54/20 31/55/20 32/56/20
f 28/52/21 27/51/21 32/57/21 31/58/21
f 30/59/22 29/60/22 26/61/22 25/62/22
f 30/63/23 25/49/23 28/52/23 31/64/23
f 26/50/24 29/53/24 32/56/24 27/51/24
o field_110704_g
v 0.158433 0.341281 -0.689744
v 0.037693 0.373634 -0.689744
v 0.135756 0.739609 -0.908494
v 0.256496 0.707257 -0.908494
v 0.045781 0.403819 -0.635617
v 0.166521 0.371466 -0.635617
v 0.264584 0.737442 -0.854367
v 0.143844 0.769795 -0.854367
vt 0.007813 0.843750
vt 0.023438 0.843750
vt 0.023438 0.898438
vt 0.007813 0.898438
vt 0.031250 0.843750
vt 0.046875 0.843750
vt 0.046875 0.898438
vt 0.031250 0.898438
vt 0.023438 0.906250
vt 0.007813 0.906250
vt 0.023438 0.898438
vt 0.039063 0.898438
vt 0.039063 0.906250
vt 0.023438 0.906250
vt 0.000000 0.843750
vt 0.000000 0.898438
vn -0.1294 -0.4830 -0.8660
vn 0.1294 0.4830 0.8660
vn 0.2241 0.8365 -0.5000
vn -0.2241 -0.8365 0.5000
vn 0.9659 -0.2588 0.0000
vn -0.9659 0.2588 -0.0000
usemtl Head
s off
f 33/65/25 34/66/25 35/67/25 36/68/25
f 37/69/26 38/70/26 39/71/26 40/72/26
f 36/68/27 35/67/27 40/73/27 39/74/27
f 38/75/28 37/76/28 34/77/28 33/78/28
f 38/79/29 33/65/29 36/68/29 39/80/29
f 34/66/30 37/69/30 40/72/30 35/67/30
o field_110703_f
v -0.037693 0.373634 -0.689744
v -0.158433 0.341281 -0.689744
v -0.256496 0.707257 -0.908494
v -0.135755 0.739609 -0.908494
v -0.166521 0.371466 -0.635617
v -0.045781 0.403819 -0.635617
v -0.143844 0.769795 -0.854367
v -0.264584 0.737442 -0.854367
vt 0.007813 0.843750
vt 0.023438 0.843750
vt 0.023438 0.898438
vt 0.007813 0.898438
vt 0.031250 0.843750
vt 0.046875 0.843750
vt 0.046875 0.898438
vt 0.031250 0.898438
vt 0.023438 0.906250
vt 0.007813 0.906250
vt 0.023438 0.898438
vt 0.039063 0.898438
vt 0.039063 0.906250
vt 0.023438 0.906250
vt 0.000000 0.843750
vt 0.000000 0.898438
vn 0.1294 -0.4830 -0.8660
vn -0.1294 0.4830 0.8660
vn -0.2241 0.8365 -0.5000
vn 0.2241 -0.8365 0.5000
vn 0.9659 0.2588 0.0000
vn -0.9659 -0.2588 0.0000
usemtl Head
s off
f 41/81/31 42/82/31 43/83/31 44/84/31
f 45/85/32 46/86/32 47/87/32 48/88/32
f 44/84/33 43/83/33 48/89/33 47/90/33
f 46/91/34 45/92/34 42/93/34 41/94/34
f 46/95/35 41/81/35 44/84/35 47/96/35
f 42/82/36 45/85/36 48/88/36 43/83/36
o field_110709_aChild
v 0.125000 -0.090321 -1.220929
v -0.125000 -0.090321 -1.220929
v -0.125000 0.072058 -1.314679
v 0.125000 0.072058 -1.314679
v -0.125000 0.097179 -0.896169
v 0.125000 0.097179 -0.896169
v 0.125000 0.259558 -0.989919
v -0.125000 0.259558 -0.989919
v 0.125000 -0.182492 -1.133073
v -0.125000 -0.182492 -1.133073
v -0.125000 -0.074239 -1.195573
v 0.125000 -0.074239 -1.195573
v -0.125000 -0.026242 -0.862440
v 0.125000 -0.026242 -0.862440
v 0.125000 0.082011 -0.924940
v -0.125000 0.082011 -0.924940
vt 0.234375 0.789063
vt 0.265625 0.789063
vt 0.265625 0.812500
vt 0.234375 0.812500
vt 0.312500 0.789063
vt 0.343750 0.789063
vt 0.343750 0.812500
vt 0.312500 0.812500
vt 0.265625 0.859375
vt 0.234375 0.859375
vt 0.265625 0.812500
vt 0.296875 0.812500
vt 0.296875 0.859375
vt 0.265625 0.859375
vt 0.187500 0.789063
vt 0.187500 0.812500
vt 0.226563 0.734375
vt 0.257813 0.734375
vt 0.257813 0.750000
vt 0.226563 0.750000
vt 0.296875 0.734375
vt 0.328125 0.734375
vt 0.328125 0.750000
vt 0.296875 0.750000
vt 0.257813 0.789063
vt 0.226563 0.789063
vt 0.257813 0.750000
vt 0.289063 0.750000
vt 0.289063 0.789063
vt 0.257813 0.789063
vt 0.187500 0.734375
vt 0.187500 0.750000
vn 0.0000 -0.5000 -0.8660
vn 0.0000 0.5000 0.8660
vn 0.0000 0.8660 -0.5000
vn 0.0000 -0.8660 0.5000
vn 1.0000 0.0000 0.0000
vn -1.0000 0.0000 0.0000
usemtl Head
s off
f 49/97/37 50/98/37 51/99/37 52/100/37
f 53/101/38 54/102/38 55/103/38 56/104/38
f 52/100/39 51/99/39 56/105/39 55/106/39
f 54/107/40 53/108/40 50/109/40 49/110/40
f 54/111/41 49/97/41 52/100/41 55/112/41
f 50/98/42 53/101/42 56/104/42 51/99/42
f 57/113/37 58/114/37 59/115/37 60/116/37
f 61/117/38 62/118/38 63/119/38 64/120/38
f 60/116/39 59/115/39 64/121/39 63/122/39
f 62/123/40 61/124/40 58/125/40 57/126/40
f 62/127/41 57/113/41 60/116/41 63/128/41
f 58/114/42 61/117/42 64/120/42 59/115/42
o field_110716_h
v 0.128125 -0.539832 -0.602003
v -0.121875 -0.539832 -0.602003
v -0.121875 0.217941 -1.039503
v 0.128125 0.217941 -1.039503
v -0.121875 -0.289832 -0.168990
v 0.128125 -0.289832 -0.168990
v 0.128125 0.467941 -0.606490
v -0.121875 0.467941 -0.606490
vt 0.062500 0.734375
vt 0.093750 0.734375
vt 0.093750 0.843750
vt 0.062500 0.843750
vt 0.156250 0.734375
vt 0.187500 0.734375
vt 0.187500 0.843750
vt 0.156250 0.843750
vt 0.093750 0.906250
vt 0.062500 0.906250
vt 0.093750 0.843750
vt 0.125000 0.843750
vt 0.125000 0.906250
vt 0.093750 0.906250
vt 0.000000 0.734375
vt 0.000000 0.843750
vn 0.0000 -0.5000 -0.8660
vn 0.0000 0.5000 0.8660
vn 0.0000 0.8660 -0.5000
vn 0.0000 -0.8660 0.5000
vn 1.0000 0.0000 0.0000
vn -1.0000 -0.0000 0.0000
usemtl Head
s off
f 65/129/43 66/130/43 67/131/43 68/132/43
f 69/133/44 70/134/44 71/135/44 72/136/44
f 68/132/45 67/131/45 72/137/45 71/138/45
f 70/139/46 69/140/46 66/141/46 65/142/46
f 70/143/47 65/129/47 68/132/47 71/144/47
f 66/130/48 69/133/48 72/136/48 67/131/48
